<mxfile host="Electron" agent="Mozilla/5.0 (Windows NT 10.0; Win64; x64) AppleWebKit/537.36 (KHTML, like Gecko) draw.io/27.0.9 Chrome/134.0.6998.205 Electron/35.4.0 Safari/537.36" version="27.0.9">
  <diagram name="Page-1" id="hqKRIYTt9wlq_jb5mgv_">
    <mxGraphModel dx="1186" dy="1010" grid="1" gridSize="10" guides="1" tooltips="1" connect="1" arrows="1" fold="1" page="0" pageScale="1" pageWidth="850" pageHeight="1100" math="0" shadow="0">
      <root>
        <mxCell id="0" />
        <mxCell id="1" parent="0" />
        <mxCell id="j3YMdTXGagINrjYVKIap-35" value="" style="rounded=1;whiteSpace=wrap;html=1;fillColor=none;dashed=1;" parent="1" vertex="1">
          <mxGeometry x="618" y="-20" width="356" height="540" as="geometry" />
        </mxCell>
        <mxCell id="j3YMdTXGagINrjYVKIap-32" value="" style="rounded=1;whiteSpace=wrap;html=1;fillColor=none;dashed=1;strokeColor=default;" parent="1" vertex="1">
          <mxGeometry x="-20" y="-20" width="530" height="540" as="geometry" />
        </mxCell>
        <mxCell id="j3YMdTXGagINrjYVKIap-5" value="&lt;font style=&quot;font-size: 18px;&quot;&gt;crm_cust_info&lt;/font&gt;" style="swimlane;fontStyle=0;childLayout=stackLayout;horizontal=1;startSize=30;horizontalStack=0;resizeParent=1;resizeParentMax=0;resizeLast=0;collapsible=1;marginBottom=0;whiteSpace=wrap;html=1;rounded=1;fillColor=#66B2FF;" parent="1" vertex="1">
          <mxGeometry x="280" y="149" width="180" height="118" as="geometry" />
        </mxCell>
        <mxCell id="j3YMdTXGagINrjYVKIap-6" value="&lt;font style=&quot;font-size: 15px;&quot;&gt;cst_id&lt;/font&gt;" style="text;strokeColor=none;fillColor=none;align=left;verticalAlign=middle;spacingLeft=4;spacingRight=4;overflow=hidden;points=[[0,0.5],[1,0.5]];portConstraint=eastwest;rotatable=0;whiteSpace=wrap;html=1;" parent="j3YMdTXGagINrjYVKIap-5" vertex="1">
          <mxGeometry y="30" width="180" height="30" as="geometry" />
        </mxCell>
        <mxCell id="j3YMdTXGagINrjYVKIap-24" value="&lt;font style=&quot;font-size: 15px;&quot;&gt;cst_key&lt;/font&gt;" style="text;strokeColor=none;fillColor=none;align=left;verticalAlign=middle;spacingLeft=4;spacingRight=4;overflow=hidden;points=[[0,0.5],[1,0.5]];portConstraint=eastwest;rotatable=0;whiteSpace=wrap;html=1;" parent="j3YMdTXGagINrjYVKIap-5" vertex="1">
          <mxGeometry y="60" width="180" height="30" as="geometry" />
        </mxCell>
        <mxCell id="q8IpiEn9Ef2PwXYDOk4A-17" value="Customer" style="text;html=1;strokeColor=#CC99FF;fillColor=#9933FF;align=center;verticalAlign=middle;whiteSpace=wrap;overflow=hidden;fontSize=15;fontColor=#ffffff;" vertex="1" parent="j3YMdTXGagINrjYVKIap-5">
          <mxGeometry y="90" width="180" height="28" as="geometry" />
        </mxCell>
        <mxCell id="j3YMdTXGagINrjYVKIap-9" value="&lt;font style=&quot;font-size: 13px;&quot;&gt;Customer Information&lt;/font&gt;" style="text;html=1;align=center;verticalAlign=middle;whiteSpace=wrap;rounded=0;" parent="1" vertex="1">
          <mxGeometry x="285" y="119" width="170" height="30" as="geometry" />
        </mxCell>
        <mxCell id="j3YMdTXGagINrjYVKIap-10" value="&lt;font style=&quot;font-size: 18px;&quot;&gt;crm_prd_info&lt;/font&gt;" style="swimlane;fontStyle=0;childLayout=stackLayout;horizontal=1;startSize=30;horizontalStack=0;resizeParent=1;resizeParentMax=0;resizeLast=0;collapsible=1;marginBottom=0;whiteSpace=wrap;html=1;rounded=1;fillColor=#66B2FF;" parent="1" vertex="1">
          <mxGeometry x="275" y="349" width="180" height="88" as="geometry" />
        </mxCell>
        <mxCell id="j3YMdTXGagINrjYVKIap-11" value="&lt;span style=&quot;font-size: 15px;&quot;&gt;prd_key&lt;/span&gt;" style="text;strokeColor=none;fillColor=none;align=left;verticalAlign=middle;spacingLeft=4;spacingRight=4;overflow=hidden;points=[[0,0.5],[1,0.5]];portConstraint=eastwest;rotatable=0;whiteSpace=wrap;html=1;" parent="j3YMdTXGagINrjYVKIap-10" vertex="1">
          <mxGeometry y="30" width="180" height="30" as="geometry" />
        </mxCell>
        <mxCell id="q8IpiEn9Ef2PwXYDOk4A-3" value="Products" style="text;html=1;strokeColor=#A50040;fillColor=#FF0080;align=center;verticalAlign=middle;whiteSpace=wrap;overflow=hidden;fontSize=15;fontColor=#ffffff;" vertex="1" parent="j3YMdTXGagINrjYVKIap-10">
          <mxGeometry y="60" width="180" height="28" as="geometry" />
        </mxCell>
        <mxCell id="j3YMdTXGagINrjYVKIap-12" value="&lt;span style=&quot;font-size: 13px;&quot;&gt;Current &amp;amp; History Product information&lt;/span&gt;" style="text;html=1;align=center;verticalAlign=middle;whiteSpace=wrap;rounded=0;" parent="1" vertex="1">
          <mxGeometry x="275" y="309" width="180" height="30" as="geometry" />
        </mxCell>
        <mxCell id="j3YMdTXGagINrjYVKIap-13" value="&lt;font style=&quot;font-size: 18px;&quot;&gt;crm_cust_info&lt;/font&gt;" style="swimlane;fontStyle=0;childLayout=stackLayout;horizontal=1;startSize=30;horizontalStack=0;resizeParent=1;resizeParentMax=0;resizeLast=0;collapsible=1;marginBottom=0;whiteSpace=wrap;html=1;rounded=1;fillColor=#66B2FF;" parent="1" vertex="1">
          <mxGeometry x="15" y="246" width="180" height="118" as="geometry" />
        </mxCell>
        <mxCell id="j3YMdTXGagINrjYVKIap-14" value="&lt;font style=&quot;font-size: 15px;&quot;&gt;cst_id&lt;/font&gt;" style="text;strokeColor=none;fillColor=none;align=left;verticalAlign=middle;spacingLeft=4;spacingRight=4;overflow=hidden;points=[[0,0.5],[1,0.5]];portConstraint=eastwest;rotatable=0;whiteSpace=wrap;html=1;" parent="j3YMdTXGagINrjYVKIap-13" vertex="1">
          <mxGeometry y="30" width="180" height="30" as="geometry" />
        </mxCell>
        <mxCell id="j3YMdTXGagINrjYVKIap-16" value="&lt;font style=&quot;font-size: 15px;&quot;&gt;prd_key&lt;/font&gt;" style="text;strokeColor=none;fillColor=none;align=left;verticalAlign=middle;spacingLeft=4;spacingRight=4;overflow=hidden;points=[[0,0.5],[1,0.5]];portConstraint=eastwest;rotatable=0;whiteSpace=wrap;html=1;" parent="j3YMdTXGagINrjYVKIap-13" vertex="1">
          <mxGeometry y="60" width="180" height="30" as="geometry" />
        </mxCell>
        <mxCell id="q8IpiEn9Ef2PwXYDOk4A-18" value="Sales" style="text;html=1;strokeColor=#6D1F00;fillColor=#a0522d;align=center;verticalAlign=middle;whiteSpace=wrap;overflow=hidden;fontSize=15;fontColor=#ffffff;" vertex="1" parent="j3YMdTXGagINrjYVKIap-13">
          <mxGeometry y="90" width="180" height="28" as="geometry" />
        </mxCell>
        <mxCell id="j3YMdTXGagINrjYVKIap-15" value="&lt;span style=&quot;font-size: 13px;&quot;&gt;Transactional records about Sales &amp;amp; Orders&lt;/span&gt;" style="text;html=1;align=center;verticalAlign=middle;whiteSpace=wrap;rounded=0;" parent="1" vertex="1">
          <mxGeometry x="25" y="209" width="170" height="30" as="geometry" />
        </mxCell>
        <mxCell id="j3YMdTXGagINrjYVKIap-19" style="edgeStyle=orthogonalEdgeStyle;rounded=0;orthogonalLoop=1;jettySize=auto;html=1;entryX=0;entryY=0.5;entryDx=0;entryDy=0;" parent="1" source="j3YMdTXGagINrjYVKIap-16" target="j3YMdTXGagINrjYVKIap-11" edge="1">
          <mxGeometry relative="1" as="geometry" />
        </mxCell>
        <mxCell id="j3YMdTXGagINrjYVKIap-20" style="edgeStyle=orthogonalEdgeStyle;rounded=0;orthogonalLoop=1;jettySize=auto;html=1;entryX=0;entryY=0.5;entryDx=0;entryDy=0;" parent="1" source="j3YMdTXGagINrjYVKIap-14" target="j3YMdTXGagINrjYVKIap-6" edge="1">
          <mxGeometry relative="1" as="geometry">
            <mxPoint x="250" y="234" as="targetPoint" />
          </mxGeometry>
        </mxCell>
        <mxCell id="j3YMdTXGagINrjYVKIap-21" value="&lt;span style=&quot;font-size: 18px;&quot;&gt;erp_px_cat_g1v2&lt;/span&gt;" style="swimlane;fontStyle=0;childLayout=stackLayout;horizontal=1;startSize=30;horizontalStack=0;resizeParent=1;resizeParentMax=0;resizeLast=0;collapsible=1;marginBottom=0;whiteSpace=wrap;html=1;rounded=1;fillColor=#60a917;fontColor=#ffffff;strokeColor=#2D7600;arcSize=50;" parent="1" vertex="1">
          <mxGeometry x="706" y="420" width="180" height="88" as="geometry" />
        </mxCell>
        <mxCell id="j3YMdTXGagINrjYVKIap-22" value="&lt;span style=&quot;font-size: 15px;&quot;&gt;id&lt;/span&gt;" style="text;strokeColor=none;fillColor=none;align=left;verticalAlign=middle;spacingLeft=4;spacingRight=4;overflow=hidden;points=[[0,0.5],[1,0.5]];portConstraint=eastwest;rotatable=0;whiteSpace=wrap;html=1;" parent="j3YMdTXGagINrjYVKIap-21" vertex="1">
          <mxGeometry y="30" width="180" height="30" as="geometry" />
        </mxCell>
        <mxCell id="q8IpiEn9Ef2PwXYDOk4A-2" value="Products" style="text;html=1;strokeColor=#A50040;fillColor=#FF0080;align=center;verticalAlign=middle;whiteSpace=wrap;overflow=hidden;fontSize=15;fontColor=#ffffff;" vertex="1" parent="j3YMdTXGagINrjYVKIap-21">
          <mxGeometry y="60" width="180" height="28" as="geometry" />
        </mxCell>
        <mxCell id="j3YMdTXGagINrjYVKIap-23" value="&lt;span style=&quot;font-size: 13px;&quot;&gt;Product Categories&lt;/span&gt;" style="text;html=1;align=center;verticalAlign=middle;whiteSpace=wrap;rounded=0;" parent="1" vertex="1">
          <mxGeometry x="721" y="389" width="150" height="31" as="geometry" />
        </mxCell>
        <mxCell id="j3YMdTXGagINrjYVKIap-25" value="&lt;span style=&quot;font-size: 13px;&quot;&gt;Location of Customers (Country)&lt;/span&gt;" style="text;html=1;align=center;verticalAlign=middle;whiteSpace=wrap;rounded=0;" parent="1" vertex="1">
          <mxGeometry x="716" y="230" width="150" height="30" as="geometry" />
        </mxCell>
        <mxCell id="j3YMdTXGagINrjYVKIap-27" value="&lt;span style=&quot;font-size: 18px;&quot;&gt;erp_cust_az12&lt;/span&gt;" style="swimlane;fontStyle=0;childLayout=stackLayout;horizontal=1;startSize=30;horizontalStack=0;resizeParent=1;resizeParentMax=0;resizeLast=0;collapsible=1;marginBottom=0;whiteSpace=wrap;html=1;rounded=1;fillColor=#60a917;fontColor=#ffffff;strokeColor=#2D7600;" parent="1" vertex="1">
          <mxGeometry x="696" y="82" width="190" height="88" as="geometry" />
        </mxCell>
        <mxCell id="j3YMdTXGagINrjYVKIap-28" value="&lt;span style=&quot;font-size: 15px;&quot;&gt;cid&lt;/span&gt;" style="text;strokeColor=none;fillColor=none;align=left;verticalAlign=middle;spacingLeft=4;spacingRight=4;overflow=hidden;points=[[0,0.5],[1,0.5]];portConstraint=eastwest;rotatable=0;whiteSpace=wrap;html=1;" parent="j3YMdTXGagINrjYVKIap-27" vertex="1">
          <mxGeometry y="30" width="190" height="30" as="geometry" />
        </mxCell>
        <mxCell id="q8IpiEn9Ef2PwXYDOk4A-14" value="Customer" style="text;html=1;strokeColor=#CC99FF;fillColor=#9933FF;align=center;verticalAlign=middle;whiteSpace=wrap;overflow=hidden;fontSize=15;fontColor=#ffffff;" vertex="1" parent="j3YMdTXGagINrjYVKIap-27">
          <mxGeometry y="60" width="190" height="28" as="geometry" />
        </mxCell>
        <mxCell id="j3YMdTXGagINrjYVKIap-29" value="&lt;span style=&quot;font-size: 18px;&quot;&gt;erp_loc_a101&lt;/span&gt;" style="swimlane;fontStyle=0;childLayout=stackLayout;horizontal=1;startSize=30;horizontalStack=0;resizeParent=1;resizeParentMax=0;resizeLast=0;collapsible=1;marginBottom=0;whiteSpace=wrap;html=1;rounded=1;fillColor=#60a917;fontColor=#ffffff;strokeColor=#2D7600;" parent="1" vertex="1">
          <mxGeometry x="701" y="261" width="180" height="88" as="geometry" />
        </mxCell>
        <mxCell id="j3YMdTXGagINrjYVKIap-30" value="&lt;span style=&quot;font-size: 15px;&quot;&gt;cid&lt;/span&gt;" style="text;strokeColor=none;fillColor=none;align=left;verticalAlign=middle;spacingLeft=4;spacingRight=4;overflow=hidden;points=[[0,0.5],[1,0.5]];portConstraint=eastwest;rotatable=0;whiteSpace=wrap;html=1;" parent="j3YMdTXGagINrjYVKIap-29" vertex="1">
          <mxGeometry y="30" width="180" height="30" as="geometry" />
        </mxCell>
        <mxCell id="q8IpiEn9Ef2PwXYDOk4A-13" value="Customer" style="text;html=1;strokeColor=#CC99FF;fillColor=#9933FF;align=center;verticalAlign=middle;whiteSpace=wrap;overflow=hidden;fontSize=15;fontColor=#ffffff;" vertex="1" parent="j3YMdTXGagINrjYVKIap-29">
          <mxGeometry y="60" width="180" height="28" as="geometry" />
        </mxCell>
        <mxCell id="j3YMdTXGagINrjYVKIap-31" value="&lt;span style=&quot;font-size: 13px;&quot;&gt;Extra Customer Information (Birthdate)&lt;/span&gt;" style="text;html=1;align=center;verticalAlign=middle;whiteSpace=wrap;rounded=0;" parent="1" vertex="1">
          <mxGeometry x="721" y="42" width="150" height="30" as="geometry" />
        </mxCell>
        <mxCell id="j3YMdTXGagINrjYVKIap-34" value="&lt;font style=&quot;font-size: 18px;&quot;&gt;CRM&lt;/font&gt;" style="rounded=1;whiteSpace=wrap;html=1;fillColor=#1ba1e2;fontColor=#000000;strokeColor=#006EAF;fontStyle=1" parent="1" vertex="1">
          <mxGeometry x="185" y="-50" width="120" height="50" as="geometry" />
        </mxCell>
        <mxCell id="j3YMdTXGagINrjYVKIap-36" value="&lt;span style=&quot;font-size: 18px;&quot;&gt;ERP&lt;/span&gt;" style="rounded=1;whiteSpace=wrap;html=1;fillColor=#60a917;fontColor=#ffffff;strokeColor=#2D7600;fontStyle=1" parent="1" vertex="1">
          <mxGeometry x="736" y="-50" width="120" height="50" as="geometry" />
        </mxCell>
        <mxCell id="j3YMdTXGagINrjYVKIap-47" value="" style="edgeStyle=orthogonalEdgeStyle;rounded=0;orthogonalLoop=1;jettySize=auto;html=1;" parent="1" source="j3YMdTXGagINrjYVKIap-28" target="j3YMdTXGagINrjYVKIap-24" edge="1">
          <mxGeometry relative="1" as="geometry">
            <mxPoint x="696" y="117" as="sourcePoint" />
            <mxPoint x="650" y="-110" as="targetPoint" />
          </mxGeometry>
        </mxCell>
        <mxCell id="q8IpiEn9Ef2PwXYDOk4A-15" style="edgeStyle=orthogonalEdgeStyle;rounded=0;orthogonalLoop=1;jettySize=auto;html=1;entryX=1;entryY=0.5;entryDx=0;entryDy=0;" edge="1" parent="1" source="j3YMdTXGagINrjYVKIap-22" target="j3YMdTXGagINrjYVKIap-11">
          <mxGeometry relative="1" as="geometry" />
        </mxCell>
        <mxCell id="q8IpiEn9Ef2PwXYDOk4A-16" style="edgeStyle=orthogonalEdgeStyle;rounded=0;orthogonalLoop=1;jettySize=auto;html=1;entryX=1;entryY=0.5;entryDx=0;entryDy=0;" edge="1" parent="1" source="j3YMdTXGagINrjYVKIap-30" target="j3YMdTXGagINrjYVKIap-24">
          <mxGeometry relative="1" as="geometry" />
        </mxCell>
      </root>
    </mxGraphModel>
  </diagram>
</mxfile>
